<svg id="Layer_1" data-name="Layer 1" xmlns="http://www.w3.org/2000/svg" width="321.85" height="104.51" viewBox="0 0 321.85 104.51">
  <defs>
    <style>
      .cls-1 {
        fill: #db5d16;
      }

      .cls-2 {
        fill: #e6e6e6;
      }

      .cls-3 {
        fill: #f2f2f2;
      }
    </style>
  </defs>
  <g>
    <path class="cls-1" d="M31.58,40.84H22.34V51.76H32.78V58.6H14.48V18.16H32.06V25H22.34v9.3h9.24Z" transform="translate(-14.48 -17.86)"/>
    <path class="cls-1" d="M35.3,54l12.78-28.8V25H36.5V18.16H57V24L44.72,51.58v.18H56.9V58.6H35.3Z" transform="translate(-14.48 -17.86)"/>
    <path class="cls-2" d="M70.05,18.7a74.77,74.77,0,0,1,11.1-.84c7.5,0,12.84,1.74,16.38,5s5.7,8,5.7,14.52-2,12-5.82,15.72S87.39,59,79.53,59a84.25,84.25,0,0,1-9.48-.48Zm5.22,35.76a33,33,0,0,0,5.28.3c11.16,0,17.22-6.24,17.22-17.16C97.83,28.06,92.43,22,81.39,22a29.66,29.66,0,0,0-6.12.54Z" transform="translate(-14.48 -17.86)"/>
    <path class="cls-2" d="M115.71,45.88l-4.2,12.72h-5.4l13.74-40.44h6.3L140,58.6h-5.58l-4.32-12.72ZM129,41.8l-4-11.64c-.9-2.64-1.5-5-2.1-7.38h-.12c-.6,2.4-1.26,4.86-2,7.32l-4,11.7Z" transform="translate(-14.48 -17.86)"/>
    <path class="cls-2" d="M149,22.6h-12.3V18.16h29.94V22.6H154.23v36H149Z" transform="translate(-14.48 -17.86)"/>
    <path class="cls-2" d="M173.13,45.88l-4.2,12.72h-5.4l13.74-40.44h6.3l13.8,40.44h-5.58l-4.32-12.72Zm13.26-4.08-4-11.64c-.9-2.64-1.5-5-2.1-7.38h-.12c-.6,2.4-1.26,4.86-2,7.32l-4,11.7Z" transform="translate(-14.48 -17.86)"/>
    <path class="cls-2" d="M216,18.16h5.22V54.22h17.28V58.6H216Z" transform="translate(-14.48 -17.86)"/>
    <path class="cls-2" d="M250.89,45.88l-4.2,12.72h-5.4L255,18.16h6.3l13.8,40.44h-5.58l-4.32-12.72Zm13.26-4.08-4-11.64c-.9-2.64-1.5-5-2.1-7.38H258c-.6,2.4-1.26,4.86-2,7.32l-4,11.7Z" transform="translate(-14.48 -17.86)"/>
    <path class="cls-2" d="M281.07,18.16h5.22v19.5h.18c1.08-1.56,2.16-3,3.18-4.32L302,18.16h6.48L293.85,35.32,309.63,58.6h-6.18L290.13,38.74l-3.84,4.44V58.6h-5.22Z" transform="translate(-14.48 -17.86)"/>
    <path class="cls-2" d="M334.53,39.64H318.81V54.22h17.52V58.6H313.59V18.16h21.84v4.38H318.81V35.32h15.72Z" transform="translate(-14.48 -17.86)"/>
  </g>
  <g>
    <path class="cls-3" d="M84.8,84.3H82.22V82.85H89V84.3H86.42V97H84.8Z" transform="translate(-14.48 -17.86)"/>
    <path class="cls-3" d="M92.19,82.85v6.07h4V82.85h1.62V97H96.16V90.39h-4V97H90.58V82.85Z" transform="translate(-14.48 -17.86)"/>
    <path class="cls-3" d="M105.46,90.28h-3.54v5.31h4V97H100.3V82.85h5.4v1.41h-3.78v4.66h3.54Z" transform="translate(-14.48 -17.86)"/>
    <path class="cls-3" d="M111,82.85h5.4v1.41h-3.78v4.95h3.52v1.37h-3.52V97H111Z" transform="translate(-14.48 -17.86)"/>
    <path class="cls-3" d="M119,92.76,118,97h-1.55l3.23-14.15h1.79L124.66,97h-1.6l-.94-4.24Zm2.92-1.3-.74-3.59c-.21-1-.4-2.19-.56-3.24h-.09c-.17,1.07-.38,2.29-.57,3.24l-.73,3.59Z" transform="translate(-14.48 -17.86)"/>
    <path class="cls-3" d="M126.11,95.13a4.06,4.06,0,0,0,2,.57,2.23,2.23,0,0,0,2.36-2.4c0-1.3-.76-2.09-1.87-2.93S126,88.27,126,86.44a3.57,3.57,0,0,1,3.74-3.72,3.66,3.66,0,0,1,2,.53l-.4,1.38a2.94,2.94,0,0,0-1.68-.48,2,2,0,0,0-2,2c0,1.4.73,2,2.08,2.91a4.85,4.85,0,0,1,2.45,4.08,3.79,3.79,0,0,1-4,4,4.82,4.82,0,0,1-2.39-.61Z" transform="translate(-14.48 -17.86)"/>
    <path class="cls-3" d="M135.66,84.3h-2.58V82.85h6.78V84.3h-2.58V97h-1.62Z" transform="translate(-14.48 -17.86)"/>
    <path class="cls-3" d="M146.6,90.28h-3.55v5.31h4V97h-5.65V82.85h5.39v1.41h-3.78v4.66h3.55Z" transform="translate(-14.48 -17.86)"/>
    <path class="cls-3" d="M148.56,95.13a4.06,4.06,0,0,0,2,.57,2.22,2.22,0,0,0,2.35-2.4c0-1.3-.75-2.09-1.86-2.93s-2.67-2.1-2.67-3.93a3.57,3.57,0,0,1,3.74-3.72,3.69,3.69,0,0,1,2,.53l-.4,1.38a3,3,0,0,0-1.68-.48,2,2,0,0,0-2,2c0,1.4.73,2,2.07,2.91a4.86,4.86,0,0,1,2.46,4.08,3.79,3.79,0,0,1-4,4,4.82,4.82,0,0,1-2.39-.61Z" transform="translate(-14.48 -17.86)"/>
    <path class="cls-3" d="M158.11,84.3h-2.58V82.85h6.78V84.3h-2.58V97h-1.62Z" transform="translate(-14.48 -17.86)"/>
    <path class="cls-3" d="M168.34,97l-2.73-14.15h1.68l1.19,6.82c.3,1.79.53,3.36.7,5.1h.08c.17-1.78.51-3.31.84-5.12l1.3-6.8h1.39l1.3,6.65c.32,1.68.63,3.3.82,5.27H175c.23-2,.49-3.56.76-5.18l1.17-6.74h1.58L175.73,97h-1.58l-1.36-6.89c-.27-1.49-.55-3.08-.72-4.64h0c-.21,1.6-.44,3.13-.77,4.71L169.85,97Z" transform="translate(-14.48 -17.86)"/>
    <path class="cls-3" d="M181,92.76,180.06,97H178.5l3.24-14.15h1.78L186.67,97h-1.6l-.94-4.24Zm2.92-1.3-.74-3.59c-.21-1-.39-2.19-.56-3.24h-.09c-.16,1.07-.37,2.29-.56,3.24l-.74,3.59Z" transform="translate(-14.48 -17.86)"/>
    <path class="cls-3" d="M189.4,97V91l-3.11-8.17H188l1.26,3.55c.36,1,.74,2.1,1.05,3.19h0c.29-1.09.65-2.16,1-3.26l1.19-3.48h1.7L191,91v6Z" transform="translate(-14.48 -17.86)"/>
    <path class="cls-3" d="M199.84,84.3h-2.58V82.85H204V84.3h-2.58V97h-1.62Z" transform="translate(-14.48 -17.86)"/>
    <path class="cls-3" d="M212.37,89.82c0,5.31-1.82,7.35-4.09,7.35s-3.93-2.5-3.93-7.27,1.68-7.22,4.16-7.22S212.37,85.31,212.37,89.82Zm-6.34.1c0,2.92.57,5.82,2.35,5.82s2.31-3.09,2.31-5.86-.48-5.77-2.33-5.77S206,87.05,206,89.92Z" transform="translate(-14.48 -17.86)"/>
    <path class="cls-3" d="M217.6,83.06a9.81,9.81,0,0,1,2.38-.27,4.44,4.44,0,0,1,3.13,1,3.24,3.24,0,0,1,.92,2.42,3.28,3.28,0,0,1-2.18,3.15v0A3.49,3.49,0,0,1,224.47,93a4,4,0,0,1-1,2.81,4.8,4.8,0,0,1-3.74,1.28,12,12,0,0,1-2.12-.14Zm1.62,5.79H220a2.42,2.42,0,0,0,2.45-2.5,2.07,2.07,0,0,0-2.33-2.3,3,3,0,0,0-.86.1Zm0,6.87a3.94,3.94,0,0,0,.82.08A2.56,2.56,0,0,0,222.81,93a2.74,2.74,0,0,0-2.88-2.9h-.71Z" transform="translate(-14.48 -17.86)"/>
    <path class="cls-3" d="M228,82.85v9.49c0,2.54.84,3.4,1.93,3.4s2-.92,2-3.4V82.85h1.62v9.24c0,3.67-1.51,5.08-3.61,5.08s-3.51-1.39-3.51-4.89V82.85Z" transform="translate(-14.48 -17.86)"/>
    <path class="cls-3" d="M237.64,82.85V97H236V82.85Z" transform="translate(-14.48 -17.86)"/>
    <path class="cls-3" d="M240.2,82.85h1.62V95.64h4V97h-5.6Z" transform="translate(-14.48 -17.86)"/>
    <path class="cls-3" d="M247.42,83.06a7.68,7.68,0,0,1,2.19-.27,4.67,4.67,0,0,1,3.31,1.07c1.1.94,1.91,2.77,1.91,5.73,0,3.23-.79,5-1.7,6a4.94,4.94,0,0,1-3.9,1.53,9.79,9.79,0,0,1-1.81-.14ZM249,95.68a3.56,3.56,0,0,0,.61,0c1.78,0,3.5-1.28,3.5-6.09,0-3.57-1.09-5.52-3.36-5.52a3,3,0,0,0-.75.08Z" transform="translate(-14.48 -17.86)"/>
    <path class="cls-3" d="M261.77,92.76,260.82,97h-1.55l3.23-14.15h1.79L267.43,97h-1.59l-.95-4.24Zm2.91-1.3L264,87.87c-.21-1-.4-2.19-.57-3.24h-.08c-.17,1.07-.38,2.29-.57,3.24L262,91.46Z" transform="translate(-14.48 -17.86)"/>
    <path class="cls-3" d="M272.5,83.06a7.61,7.61,0,0,1,2.18-.27A4.71,4.71,0,0,1,278,83.86c1.09.94,1.91,2.77,1.91,5.73,0,3.23-.8,5-1.7,6a5,5,0,0,1-3.91,1.53,9.6,9.6,0,0,1-1.8-.14Zm1.61,12.62a3.62,3.62,0,0,0,.61,0c1.79,0,3.51-1.28,3.51-6.09,0-3.57-1.09-5.52-3.36-5.52a3.06,3.06,0,0,0-.76.08Z" transform="translate(-14.48 -17.86)"/>
    <path class="cls-3" d="M283.12,92.76,282.18,97h-1.56l3.24-14.15h1.78L288.79,97H287.2l-.95-4.24Zm2.92-1.3-.73-3.59c-.21-1-.4-2.19-.57-3.24h-.08c-.17,1.07-.38,2.29-.57,3.24l-.74,3.59Z" transform="translate(-14.48 -17.86)"/>
    <path class="cls-3" d="M291,84.3h-2.59V82.85h6.78V84.3h-2.58V97H291Z" transform="translate(-14.48 -17.86)"/>
    <path class="cls-3" d="M297.49,92.76,296.54,97H295l3.23-14.15H300L303.16,97h-1.6l-.94-4.24Zm2.91-1.3-.73-3.59c-.21-1-.4-2.19-.57-3.24H299c-.17,1.07-.38,2.29-.57,3.24l-.73,3.59Z" transform="translate(-14.48 -17.86)"/>
    <path class="cls-3" d="M304.92,82.85h1.62V95.64h4V97h-5.61Z" transform="translate(-14.48 -17.86)"/>
    <path class="cls-3" d="M313.91,92.76,313,97h-1.55l3.23-14.15h1.79L319.58,97H318L317,92.76Zm2.92-1.3-.74-3.59c-.21-1-.4-2.19-.57-3.24h-.08c-.17,1.07-.38,2.29-.57,3.24l-.73,3.59Z" transform="translate(-14.48 -17.86)"/>
    <path class="cls-3" d="M321.34,82.85H323v6.72h0c.32-.59.61-1.16.88-1.7l2.65-5h1.78l-3.46,6.05L328.4,97h-1.75l-2.89-6.82-.8,1.36V97h-1.62Z" transform="translate(-14.48 -17.86)"/>
    <path class="cls-3" d="M335,90.28h-3.55v5.31h4V97h-5.64V82.85h5.39v1.41h-3.78v4.66H335Z" transform="translate(-14.48 -17.86)"/>
    <path class="cls-3" d="M155.82,108.05h5.4v1.41h-3.78v5H161v1.37h-3.53v6.42h-1.62Z" transform="translate(-14.48 -17.86)"/>
    <path class="cls-3" d="M170.5,115c0,5.31-1.83,7.35-4.09,7.35s-3.93-2.5-3.93-7.27,1.68-7.22,4.16-7.22S170.5,110.51,170.5,115Zm-6.34.1c0,2.92.57,5.82,2.35,5.82s2.31-3.09,2.31-5.86-.48-5.77-2.33-5.77S164.16,112.25,164.16,115.12Z" transform="translate(-14.48 -17.86)"/>
    <path class="cls-3" d="M172.43,108.26a9.24,9.24,0,0,1,2.33-.27,4.4,4.4,0,0,1,3.2,1,3.84,3.84,0,0,1,1,2.78,3.69,3.69,0,0,1-2.27,3.63v0c1.05.31,1.6,1.32,1.91,3.17a20.32,20.32,0,0,0,.8,3.59h-1.63a17.89,17.89,0,0,1-.76-3.51c-.32-1.93-.92-2.66-2.31-2.66h-.63v6.17h-1.62Zm1.62,6.53h.67A2.56,2.56,0,0,0,177.3,112c0-1.63-.67-2.64-2.41-2.66a3.37,3.37,0,0,0-.84.08Z" transform="translate(-14.48 -17.86)"/>
    <path class="cls-3" d="M185.64,122.2v-6l-3.11-8.17h1.7l1.26,3.55c.36,1,.74,2.1,1,3.19h.05c.29-1.09.65-2.16,1-3.26l1.19-3.48h1.7l-3.25,8.1v6Z" transform="translate(-14.48 -17.86)"/>
    <path class="cls-3" d="M198.7,115c0,5.31-1.82,7.35-4.09,7.35s-3.93-2.5-3.93-7.27,1.68-7.22,4.16-7.22S198.7,110.51,198.7,115Zm-6.34.1c0,2.92.57,5.82,2.35,5.82s2.31-3.09,2.31-5.86-.48-5.77-2.33-5.77S192.36,112.25,192.36,115.12Z" transform="translate(-14.48 -17.86)"/>
    <path class="cls-3" d="M202.23,108.05v9.49c0,2.54.84,3.4,1.93,3.4s2-.92,2-3.4v-9.49h1.61v9.24c0,3.67-1.51,5.08-3.61,5.08s-3.5-1.39-3.5-4.89v-9.43Z" transform="translate(-14.48 -17.86)"/>
    <path class="cls-3" d="M210.23,108.26a9.24,9.24,0,0,1,2.33-.27,4.36,4.36,0,0,1,3.19,1,3.8,3.8,0,0,1,1,2.78,3.69,3.69,0,0,1-2.27,3.63v0c1.05.31,1.6,1.32,1.91,3.17a20.32,20.32,0,0,0,.8,3.59h-1.64a18.16,18.16,0,0,1-.75-3.51c-.32-1.93-.92-2.66-2.31-2.66h-.63v6.17h-1.62Zm1.62,6.53h.67A2.56,2.56,0,0,0,215.1,112c0-1.63-.67-2.64-2.41-2.66a3.42,3.42,0,0,0-.84.08Z" transform="translate(-14.48 -17.86)"/>
    <path class="cls-3" d="M221.8,120.33a4.13,4.13,0,0,0,2,.57,2.22,2.22,0,0,0,2.35-2.4c0-1.3-.75-2.09-1.87-2.93s-2.66-2.1-2.66-3.93a3.57,3.57,0,0,1,3.73-3.72,3.7,3.7,0,0,1,2,.53l-.4,1.38a3,3,0,0,0-1.68-.48,2,2,0,0,0-2,2c0,1.4.74,1.95,2.08,2.91a4.86,4.86,0,0,1,2.46,4.08,3.79,3.79,0,0,1-4,4,4.82,4.82,0,0,1-2.39-.61Z" transform="translate(-14.48 -17.86)"/>
    <path class="cls-3" d="M231.4,118l-.94,4.24H228.9l3.23-14.15h1.79l3.15,14.15h-1.6l-.94-4.24Zm2.92-1.3-.74-3.59c-.21-1-.4-2.19-.56-3.24h-.09c-.17,1.07-.38,2.29-.56,3.24l-.74,3.59Z" transform="translate(-14.48 -17.86)"/>
    <path class="cls-3" d="M238.83,108.05h1.62v12.79h4v1.36h-5.61Z" transform="translate(-14.48 -17.86)"/>
    <path class="cls-3" d="M251.22,115.48h-3.55v5.31h4v1.41h-5.65V108.05h5.39v1.41h-3.78v4.66h3.55Z" transform="translate(-14.48 -17.86)"/>
    <path class="cls-3" d="M253.18,120.33a4.06,4.06,0,0,0,2,.57,2.23,2.23,0,0,0,2.36-2.4c0-1.3-.76-2.09-1.87-2.93s-2.67-2.1-2.67-3.93a3.57,3.57,0,0,1,3.74-3.72,3.66,3.66,0,0,1,2,.53l-.4,1.38a2.94,2.94,0,0,0-1.68-.48,2,2,0,0,0-2,2c0,1.4.73,1.95,2.08,2.91a4.85,4.85,0,0,1,2.45,4.08,3.79,3.79,0,0,1-4,4,4.82,4.82,0,0,1-2.39-.61Z" transform="translate(-14.48 -17.86)"/>
    <path class="cls-3" d="M261.07,108.05h5.4v1.41h-3.78v5h3.53v1.37h-3.53v6.42h-1.62Z" transform="translate(-14.48 -17.86)"/>
    <path class="cls-3" d="M275.75,115c0,5.31-1.83,7.35-4.09,7.35s-3.93-2.5-3.93-7.27,1.68-7.22,4.16-7.22S275.75,110.51,275.75,115Zm-6.34.1c0,2.92.57,5.82,2.35,5.82s2.31-3.09,2.31-5.86-.48-5.77-2.33-5.77S269.41,112.25,269.41,115.12Z" transform="translate(-14.48 -17.86)"/>
    <path class="cls-3" d="M277.68,108.26A9.24,9.24,0,0,1,280,108a4.4,4.4,0,0,1,3.2,1,3.84,3.84,0,0,1,1,2.78,3.69,3.69,0,0,1-2.27,3.63v0c1.05.31,1.6,1.32,1.92,3.17a19.74,19.74,0,0,0,.79,3.59H283a17.89,17.89,0,0,1-.76-3.51c-.32-1.93-.92-2.66-2.31-2.66h-.63v6.17h-1.62Zm1.62,6.53H280a2.56,2.56,0,0,0,2.58-2.84c0-1.63-.67-2.64-2.41-2.66a3.42,3.42,0,0,0-.84.08Z" transform="translate(-14.48 -17.86)"/>
    <path class="cls-3" d="M292.45,122a4.58,4.58,0,0,1-2,.38c-2.77,0-4.75-2.23-4.75-7,0-5.58,2.78-7.37,5-7.37a3.55,3.55,0,0,1,1.77.36l-.36,1.36a3.2,3.2,0,0,0-1.43-.29c-1.51,0-3.28,1.47-3.28,5.8s1.6,5.75,3.32,5.75a3.44,3.44,0,0,0,1.49-.32Z" transform="translate(-14.48 -17.86)"/>
    <path class="cls-3" d="M299.27,115.48h-3.55v5.31h4v1.41h-5.64V108.05h5.39v1.41h-3.78v4.66h3.55Z" transform="translate(-14.48 -17.86)"/>
    <path class="cls-3" d="M304.84,108.26A7.61,7.61,0,0,1,307,108a4.71,4.71,0,0,1,3.32,1.07c1.09.94,1.91,2.77,1.91,5.73,0,3.23-.8,5-1.7,6a5,5,0,0,1-3.91,1.53,9.6,9.6,0,0,1-1.8-.14Zm1.61,12.62a3.56,3.56,0,0,0,.61,0c1.79,0,3.51-1.28,3.51-6.09,0-3.57-1.09-5.52-3.36-5.52a3.06,3.06,0,0,0-.76.08Z" transform="translate(-14.48 -17.86)"/>
    <path class="cls-3" d="M315.46,118l-.94,4.24H313l3.24-14.15H318l3.15,14.15h-1.59l-1-4.24Zm2.92-1.3-.74-3.59c-.2-1-.39-2.19-.56-3.24H317c-.16,1.07-.37,2.29-.56,3.24l-.74,3.59Z" transform="translate(-14.48 -17.86)"/>
    <path class="cls-3" d="M323.29,109.5h-2.58v-1.45h6.78v1.45h-2.58v12.7h-1.62Z" transform="translate(-14.48 -17.86)"/>
    <path class="cls-3" d="M329.83,118l-.95,4.24h-1.55l3.23-14.15h1.78l3.15,14.15H333.9L333,118Zm2.91-1.3-.73-3.59c-.21-1-.4-2.19-.57-3.24h-.08c-.17,1.07-.38,2.29-.57,3.24l-.73,3.59Z" transform="translate(-14.48 -17.86)"/>
  </g>
</svg>
